<svg width="25" height="24" viewBox="0 0 25 24" fill="none" xmlns="http://www.w3.org/2000/svg">
<path d="M20.125 22L18.083 20.2L16.932 19.13L15.715 18L16.215 19.759H5.44701C4.36863 19.7551 3.49725 18.8784 3.50001 17.8V4.957C3.49835 3.87939 4.36941 3.00386 5.44701 3H18.178C19.2556 3.00386 20.1267 3.87939 20.125 4.957V22ZM15.6 13.508C15.1784 14.0735 14.5713 14.4728 13.885 14.636C14.167 14.996 14.507 15.403 14.51 15.407C15.6571 15.4312 16.7433 14.8917 17.417 13.963C17.3825 12.0377 16.9149 10.1449 16.049 8.425C15.2866 7.82677 14.3586 7.47763 13.391 7.425H13.38L13.247 7.577C14.1113 7.80915 14.9173 8.22 15.613 8.783C14.7278 8.29641 13.7565 7.98665 12.753 7.871C12.1152 7.80017 11.4713 7.80654 10.835 7.89C10.79 7.89089 10.7452 7.89557 10.701 7.904H10.673C9.92736 7.98985 9.19982 8.19232 8.51701 8.504C8.17501 8.661 7.96501 8.775 7.95601 8.779C7.94701 8.783 7.95601 8.779 7.95601 8.772C8.6939 8.19164 9.54518 7.7723 10.455 7.541L10.355 7.427H10.349C9.3814 7.47976 8.45344 7.82888 7.69101 8.427C6.82192 10.1457 6.35417 12.0393 6.32301 13.965C6.98835 14.8999 8.07601 15.4415 9.22301 15.409C9.22301 15.409 9.58101 14.973 9.86001 14.62C9.19101 14.4519 8.60153 14.0558 8.19301 13.5C8.20001 13.505 8.29901 13.572 8.45901 13.66C8.46976 13.6726 8.48305 13.6829 8.49801 13.69C8.51068 13.6988 8.52406 13.7065 8.53801 13.713C8.55383 13.7202 8.5689 13.7289 8.58301 13.739C8.80612 13.862 9.03771 13.9689 9.27601 14.059C9.72909 14.2384 10.1977 14.3756 10.676 14.469C11.0948 14.5479 11.5199 14.5881 11.946 14.589C12.3455 14.589 12.7442 14.5521 13.137 14.479C13.6101 14.3959 14.0721 14.259 14.514 14.071C14.8958 13.9242 15.26 13.7353 15.6 13.508ZM13.562 13.081C13.1269 13.1189 12.7132 12.8859 12.5201 12.4942C12.3271 12.1025 12.3942 11.6324 12.6893 11.3104C12.9844 10.9885 13.4469 10.8807 13.8539 11.039C14.2609 11.1973 14.529 11.5893 14.529 12.026C14.551 12.5839 14.1188 13.0551 13.561 13.081H13.562ZM10.094 13.081C9.54686 13.0333 9.12697 12.5752 9.12697 12.026C9.12697 11.4768 9.54686 11.0187 10.094 10.971C10.3461 10.9718 10.587 11.0746 10.762 11.256C10.9606 11.4621 11.0686 11.7389 11.062 12.025C11.0852 12.5839 10.6518 13.0561 10.093 13.081H10.094Z" fill="black"/>
</svg>
