<svg width="25" height="24" viewBox="0 0 25 24" fill="none" xmlns="http://www.w3.org/2000/svg">
<path d="M12.526 2C7.63295 1.99937 3.46183 5.54799 2.67842 10.3779C1.895 15.2079 4.73061 19.893 9.37302 21.439C9.87302 21.529 10.052 21.222 10.052 20.958C10.052 20.721 10.044 20.093 10.041 19.258C7.26602 19.858 6.68002 17.92 6.68002 17.92C6.49733 17.317 6.10459 16.7993 5.57302 16.461C4.67302 15.842 5.64202 15.856 5.64202 15.856C6.28269 15.9438 6.84657 16.3235 7.16902 16.884C7.44195 17.3803 7.90177 17.747 8.44632 17.9026C8.99087 18.0583 9.57503 17.99 10.069 17.713C10.1154 17.207 10.3406 16.7341 10.704 16.379C8.49002 16.128 6.16202 15.272 6.16202 11.449C6.14973 10.4602 6.51691 9.5043 7.18802 8.778C6.88437 7.91731 6.92013 6.97325 7.28802 6.138C7.28802 6.138 8.12502 5.869 10.03 7.159C11.6639 6.71101 13.3882 6.71101 15.022 7.159C16.928 5.868 17.764 6.138 17.764 6.138C18.1336 6.97286 18.1694 7.91757 17.864 8.778C18.5376 9.50423 18.9045 10.4626 18.888 11.453C18.888 15.286 16.558 16.128 14.336 16.375C14.8153 16.8651 15.0612 17.5373 15.011 18.221C15.011 19.555 14.999 20.631 14.999 20.958C14.999 21.225 15.177 21.535 15.686 21.437C20.3265 19.8884 23.1591 15.203 22.374 10.3743C21.589 5.54565 17.4181 1.99888 12.526 2Z" fill="black"/>
</svg>
