<svg version="1.0" xmlns="http://www.w3.org/2000/svg"
 width="890.000000pt" height="690.000000pt" viewBox="0 0 890.000000 690.000000"
 preserveAspectRatio="xMidYMid meet">

<g transform="translate(0.000000,690.000000) scale(0.100000,-0.100000)"
fill="#000000" stroke="none">
<path d="M2843 6833 c6 -9 -158 -36 -235 -37 -20 -1 -34 -5 -31 -10 3 -5 -6
-7 -20 -4 -16 3 -24 1 -20 -5 4 -6 -4 -8 -20 -5 -15 3 -24 2 -22 -3 7 -10 -52
-22 -66 -13 -8 5 -9 3 -4 -6 6 -10 3 -12 -13 -8 -14 4 -20 2 -15 -5 4 -6 -2
-8 -15 -5 -14 4 -20 2 -15 -5 4 -6 -2 -8 -15 -5 -14 4 -20 2 -15 -5 4 -6 -2
-8 -15 -5 -12 4 -20 2 -17 -2 7 -12 -32 -23 -46 -14 -8 5 -9 3 -4 -6 6 -10 4
-12 -9 -7 -9 4 -14 3 -11 -2 7 -12 -31 -24 -46 -15 -8 5 -9 3 -4 -6 6 -10 4
-12 -9 -7 -11 5 -15 3 -10 -5 5 -8 2 -9 -10 -5 -11 5 -15 3 -10 -5 5 -8 2 -9
-10 -5 -11 5 -15 3 -10 -5 5 -8 2 -9 -10 -5 -11 5 -15 3 -10 -5 5 -8 2 -9 -10
-5 -11 5 -15 3 -10 -5 5 -8 2 -9 -10 -5 -11 5 -15 3 -10 -5 5 -8 2 -9 -9 -5
-10 4 -16 2 -14 -6 1 -7 -6 -11 -15 -11 -10 1 -15 -3 -11 -9 4 -6 0 -8 -10 -4
-10 4 -16 2 -14 -6 1 -7 -6 -11 -15 -11 -10 1 -15 -3 -11 -9 4 -6 0 -8 -10 -4
-9 3 -19 1 -23 -5 -5 -7 -2 -8 6 -3 9 6 11 4 6 -4 -5 -7 -14 -10 -22 -7 -7 3
-16 0 -20 -6 -5 -7 -2 -8 6 -3 9 6 11 4 6 -4 -5 -7 -14 -10 -22 -7 -7 3 -16 0
-20 -6 -5 -7 -2 -8 6 -3 9 6 11 4 6 -4 -5 -7 -14 -10 -21 -7 -8 3 -19 -3 -27
-12 -12 -16 -11 -16 7 -2 19 14 19 14 6 -3 -8 -10 -20 -16 -27 -13 -7 3 -18
-3 -26 -12 -12 -16 -11 -16 7 -2 20 15 20 15 1 -8 -11 -12 -25 -21 -32 -18 -7
3 -18 -2 -24 -10 -7 -8 -9 -14 -5 -14 4 0 2 -7 -5 -15 -7 -9 -19 -14 -25 -11
-15 5 -204 -185 -199 -200 3 -5 -8 -21 -23 -35 l-28 -24 20 25 c19 25 19 25 0
7 -11 -10 -20 -25 -20 -35 0 -9 -7 -17 -15 -17 -8 0 -15 -9 -15 -20 0 -11 -7
-20 -15 -20 -8 0 -15 -9 -15 -20 0 -11 -5 -19 -11 -18 -7 1 -11 -5 -10 -15 0
-9 -6 -17 -14 -17 -9 0 -14 -8 -12 -19 2 -10 -1 -15 -6 -12 -5 3 -9 -2 -8 -12
0 -9 -4 -16 -11 -15 -7 2 -10 -3 -7 -11 3 -8 0 -17 -7 -22 -8 -5 -10 -3 -4 6
5 8 4 11 -3 6 -6 -4 -8 -14 -5 -23 4 -11 3 -14 -5 -9 -8 5 -10 1 -5 -10 4 -12
3 -15 -5 -10 -8 5 -10 1 -5 -10 5 -13 3 -15 -7 -9 -9 5 -11 4 -6 -3 9 -15 -12
-54 -24 -47 -6 4 -7 -1 -3 -11 5 -13 3 -15 -7 -9 -9 6 -11 4 -5 -4 9 -15 -24
-93 -36 -85 -5 3 -6 -3 -2 -12 4 -11 3 -15 -4 -11 -7 5 -9 -1 -5 -15 3 -14 1
-19 -6 -14 -8 5 -10 1 -5 -10 4 -11 3 -15 -4 -11 -7 5 -9 -1 -5 -15 4 -16 2
-19 -8 -13 -8 5 -11 4 -6 -3 10 -16 -4 -63 -17 -55 -6 3 -7 1 -3 -5 10 -16 -4
-63 -17 -55 -6 3 -7 1 -3 -6 10 -15 -3 -73 -15 -66 -5 4 -6 0 -3 -8 3 -8 -4
-60 -15 -117 -12 -56 -21 -118 -21 -137 0 -19 -3 -32 -7 -30 -5 3 -6 -26 -5
-65 3 -54 1 -68 -9 -63 -7 5 -10 4 -6 -2 3 -5 7 -708 7 -1561 1 -854 5 -1550
9 -1547 8 4 23 -97 25 -167 1 -20 4 -34 8 -32 9 6 21 -73 12 -87 -4 -7 -3 -9
4 -5 13 8 27 -48 16 -65 -4 -7 -3 -9 3 -6 13 8 27 -39 17 -55 -4 -6 -3 -8 3
-5 13 8 27 -39 17 -55 -5 -7 -2 -8 6 -3 10 6 12 3 8 -13 -4 -14 -2 -20 5 -15
7 4 8 0 4 -11 -5 -11 -3 -15 5 -10 7 5 9 0 6 -14 -4 -14 -2 -20 5 -15 7 4 8 0
4 -11 -4 -9 -3 -15 2 -12 11 7 23 -22 14 -36 -4 -7 -1 -8 7 -3 10 6 12 3 8
-13 -4 -13 -2 -20 6 -19 6 1 11 -8 10 -20 0 -12 3 -20 7 -17 12 7 31 -34 23
-48 -5 -7 -3 -8 6 -3 10 6 12 4 7 -9 -5 -11 -3 -15 5 -10 8 5 9 2 5 -10 -5
-11 -3 -15 5 -10 8 5 9 2 5 -9 -3 -9 -1 -19 5 -23 7 -5 8 -2 3 6 -6 9 -4 11 4
6 7 -5 10 -14 7 -22 -3 -7 0 -16 6 -20 7 -5 8 -2 4 7 -4 8 0 5 8 -6 9 -11 14
-25 12 -32 -3 -7 0 -15 6 -19 7 -5 8 -2 3 6 -6 9 -4 11 4 6 7 -5 10 -14 7 -21
-3 -8 3 -19 12 -27 16 -12 16 -11 2 7 -14 19 -14 19 3 6 10 -8 16 -20 13 -27
-3 -7 0 -16 6 -20 7 -5 8 -2 3 7 -8 12 -6 12 8 0 10 -7 16 -21 15 -30 -2 -8 4
-16 12 -16 8 0 15 -8 15 -17 0 -10 9 -25 20 -35 19 -18 19 -18 0 7 l-20 25 28
-25 c15 -13 26 -29 23 -36 -2 -6 14 -29 37 -50 l42 -39 -40 45 -40 45 47 -44
c26 -24 45 -48 42 -53 -3 -5 0 -7 8 -6 7 2 12 -3 10 -10 -1 -8 1 -11 6 -8 5 3
26 -14 48 -37 l39 -42 -40 35 -40 35 34 -37 c18 -20 39 -34 45 -32 7 3 23 -8
36 -23 l25 -28 -25 20 -25 20 18 -22 c11 -12 24 -20 31 -17 7 3 21 -6 32 -18
19 -23 19 -23 -1 -8 -18 14 -19 14 -7 -2 8 -9 19 -15 26 -12 7 3 19 -3 27 -13
13 -17 13 -17 -6 -3 -18 14 -19 14 -7 -2 8 -9 19 -15 27 -12 7 3 16 0 21 -7 5
-8 3 -10 -6 -4 -8 5 -11 4 -6 -3 4 -6 13 -9 20 -6 8 3 17 0 22 -7 5 -8 3 -10
-6 -4 -8 5 -11 4 -6 -3 4 -6 13 -9 20 -6 8 3 17 0 22 -7 5 -8 3 -10 -6 -4 -8
5 -11 4 -6 -3 4 -6 14 -8 23 -5 10 4 14 2 10 -4 -4 -6 1 -10 11 -9 9 0 16 -4
15 -11 -2 -7 3 -10 10 -7 7 2 21 -3 32 -12 11 -8 14 -12 6 -8 -9 4 -12 3 -7
-4 4 -6 14 -8 23 -5 11 4 14 3 9 -5 -5 -8 -1 -10 10 -5 12 4 15 3 10 -5 -5 -8
-1 -10 10 -5 12 4 15 3 10 -5 -5 -8 -1 -10 10 -5 12 4 15 3 10 -5 -5 -8 -1
-10 10 -5 12 4 15 3 10 -5 -5 -8 -1 -10 10 -5 12 4 15 3 10 -5 -5 -8 -1 -10
10 -5 13 5 15 3 9 -7 -5 -9 -4 -11 4 -6 15 9 53 -3 46 -15 -3 -5 2 -6 11 -2
11 4 15 3 11 -4 -5 -7 1 -9 15 -5 14 3 19 1 14 -6 -5 -8 -1 -10 10 -5 11 4 15
3 11 -4 -5 -7 1 -9 15 -5 13 3 19 1 15 -5 -5 -7 1 -9 15 -5 13 3 19 1 15 -5
-5 -7 1 -9 15 -5 13 3 19 1 15 -5 -5 -7 1 -9 15 -5 13 3 19 1 15 -5 -5 -7 1
-9 15 -5 16 4 19 2 13 -8 -6 -9 -4 -11 4 -6 15 10 83 -2 77 -13 -3 -4 9 -5 26
-3 19 3 28 1 25 -5 -4 -6 4 -8 20 -5 14 3 23 1 20 -4 -3 -5 12 -8 35 -6 22 3
38 0 35 -4 -3 -5 11 -10 31 -12 93 -8 3269 -16 3265 -9 -3 5 26 7 65 5 39 -1
68 1 65 6 -3 5 10 7 30 4 20 -2 34 -1 31 3 -5 9 94 21 108 13 7 -5 8 -3 3 6
-6 10 0 12 23 8 19 -3 29 0 25 5 -4 6 3 8 15 5 14 -4 20 -2 16 4 -5 7 2 9 19
6 15 -3 24 -2 22 3 -7 10 52 22 66 13 7 -4 9 -3 5 4 -8 13 89 47 105 36 7 -4
9 -3 5 4 -8 13 29 26 45 16 8 -5 9 -3 4 6 -6 10 -4 12 9 7 11 -5 15 -3 10 5
-5 8 -2 9 10 5 9 -4 15 -3 12 2 -8 12 50 35 65 25 7 -4 10 -3 5 4 -8 14 30 36
46 26 7 -5 8 -3 3 6 -6 10 -4 12 9 7 11 -5 15 -3 10 5 -5 8 -2 9 10 5 11 -5
15 -3 10 5 -5 8 -2 9 9 5 9 -3 19 -1 23 5 5 7 2 8 -7 4 -8 -4 -5 0 6 8 11 9
25 14 32 12 7 -3 15 0 19 6 5 7 2 8 -6 3 -9 -6 -11 -4 -6 4 5 7 14 10 22 7 8
-3 13 0 11 7 -1 7 6 12 15 12 9 0 20 4 25 9 5 5 2 6 -6 1 -10 -6 -12 -4 -7 4
5 7 14 10 22 7 7 -3 16 0 20 6 5 7 2 8 -7 3 -12 -8 -12 -6 0 8 7 10 21 16 30
15 8 -2 16 4 16 12 0 8 8 15 17 15 10 0 23 7 30 15 11 12 10 12 -7 0 -20 -15
-20 -15 -1 8 11 12 25 21 32 18 7 -3 20 5 31 17 l18 22 -25 -20 c-21 -16 -20
-14 5 13 16 18 34 31 41 28 14 -5 133 115 128 129 -3 6 10 24 28 40 27 25 29
26 13 5 l-20 -25 22 18 c12 11 19 24 17 31 -5 12 23 43 35 39 3 -1 5 4 3 11
-1 7 8 21 20 32 22 19 23 19 8 -1 -14 -18 -14 -19 2 -7 9 8 15 19 12 27 -3 7
0 16 7 21 8 5 10 3 4 -7 -5 -8 -4 -11 1 -6 5 5 9 16 9 25 0 9 5 16 11 15 7 -1
11 5 10 15 0 9 4 16 10 15 7 -1 11 5 10 15 0 9 4 16 11 15 8 -2 10 4 6 14 -4
10 -2 14 4 10 6 -4 10 1 9 11 0 9 4 16 11 15 8 -2 10 4 6 14 -4 11 -3 14 5 9
8 -5 10 -1 5 10 -4 11 -2 15 4 11 6 -4 10 1 9 11 0 9 4 16 11 15 8 -2 10 4 6
14 -4 11 -3 14 5 9 8 -5 10 -1 5 10 -4 12 -3 15 5 10 8 -5 10 -1 5 10 -4 12
-3 15 5 10 8 -5 10 -1 5 10 -5 13 -3 15 7 9 9 -5 11 -4 6 4 -10 15 13 73 25
65 5 -3 6 3 2 12 -4 11 -3 15 4 11 7 -5 9 1 5 15 -3 14 -1 19 6 14 8 -5 10 -1
5 10 -4 11 -3 15 4 11 7 -5 9 1 5 15 -3 13 -1 19 5 15 7 -5 9 1 5 15 -3 13 -1
19 5 15 7 -5 9 1 5 15 -3 13 -1 19 5 15 7 -5 9 1 5 15 -3 13 -1 19 5 15 7 -5
9 1 5 15 -4 16 -2 19 8 13 9 -5 11 -4 6 3 -10 17 4 83 17 75 6 -3 7 -1 3 6 -9
14 3 93 13 87 4 -3 5 11 3 31 -3 20 -1 33 4 30 5 -3 10 11 12 31 6 74 17 3280
11 3276 -6 -3 -21 127 -23 198 -1 20 -4 34 -8 32 -9 -6 -21 73 -12 87 4 7 3 9
-3 6 -13 -8 -27 58 -17 75 5 7 3 8 -6 3 -10 -6 -12 -3 -8 13 4 14 2 20 -5 15
-6 -4 -8 2 -5 15 4 12 3 20 -2 17 -10 -6 -23 43 -14 57 5 7 2 8 -6 3 -10 -6
-12 -3 -8 13 4 14 2 20 -5 15 -7 -4 -8 0 -4 11 5 11 3 15 -5 10 -7 -5 -9 0 -6
14 4 14 2 20 -5 15 -7 -4 -8 0 -4 11 4 9 3 15 -2 12 -12 -8 -35 50 -25 65 5 8
3 9 -6 4 -10 -6 -12 -4 -7 9 5 11 3 15 -5 10 -8 -5 -9 -2 -5 10 5 11 3 15 -5
10 -8 -5 -9 -2 -5 10 5 11 3 15 -5 10 -8 -5 -9 -2 -5 10 5 11 3 15 -5 10 -8
-5 -9 -2 -5 9 4 10 2 16 -6 14 -7 -1 -11 6 -11 15 1 10 -3 15 -9 11 -6 -4 -8
0 -4 10 4 10 2 16 -6 14 -7 -1 -11 6 -11 15 1 10 -3 15 -9 11 -6 -4 -8 0 -4
10 4 10 2 16 -6 14 -7 -1 -11 6 -11 15 1 10 -3 16 -10 15 -6 -1 -11 6 -11 15
0 9 -4 20 -9 25 -5 5 -6 2 -1 -6 6 -10 4 -12 -4 -7 -7 5 -10 14 -7 22 3 7 0
16 -6 20 -7 5 -8 2 -3 -6 6 -9 4 -11 -4 -6 -7 5 -10 14 -7 21 3 8 -3 19 -12
27 -16 12 -16 11 -2 -7 14 -19 14 -19 -3 -6 -10 8 -16 20 -13 27 3 7 -3 18
-12 26 -16 12 -16 11 -2 -7 15 -20 15 -20 -8 -1 -12 11 -21 25 -18 32 2 6 -7
22 -22 35 l-27 24 25 -30 c22 -27 21 -27 -13 5 -20 19 -35 39 -33 45 5 14
-114 134 -128 129 -7 -3 -25 10 -41 28 -25 27 -26 29 -5 13 l25 -20 -18 22
c-11 12 -24 20 -31 17 -7 -3 -21 6 -32 18 -19 23 -19 23 1 8 17 -12 18 -12 7
0 -7 8 -20 15 -30 15 -9 0 -17 7 -17 15 0 8 -8 14 -16 12 -9 -1 -23 5 -30 15
-12 14 -12 16 0 8 9 -5 12 -4 7 3 -4 6 -13 9 -20 6 -8 -3 -17 0 -22 7 -5 8 -3
10 6 4 8 -5 11 -4 6 3 -4 6 -13 9 -20 6 -8 -3 -17 0 -22 7 -5 8 -3 10 6 4 8
-5 11 -4 6 3 -4 6 -13 9 -20 6 -8 -3 -17 0 -22 7 -5 8 -3 10 6 4 8 -5 11 -4 6
3 -4 6 -14 8 -23 5 -10 -4 -14 -2 -10 4 4 6 -1 10 -11 9 -9 0 -16 4 -15 11 2
8 -4 10 -14 6 -11 -4 -14 -3 -9 5 5 8 1 10 -10 5 -13 -5 -15 -3 -9 7 5 9 4 11
-3 6 -16 -10 -74 22 -66 36 5 7 3 8 -5 3 -15 -9 -93 24 -85 36 3 5 -3 6 -12 2
-11 -4 -15 -3 -11 4 5 7 -1 9 -15 5 -14 -3 -19 -1 -14 6 5 8 1 10 -10 5 -11
-4 -15 -3 -11 4 5 7 -1 9 -15 5 -16 -4 -19 -2 -13 8 5 9 4 11 -4 6 -14 -9 -53
2 -46 14 3 4 -5 6 -17 2 -13 -3 -19 -1 -15 5 5 7 -1 9 -15 5 -13 -3 -19 -1
-15 5 4 6 -4 8 -20 5 -17 -3 -24 -1 -19 6 4 6 -2 8 -16 4 -16 -4 -19 -2 -13 8
5 9 4 11 -4 6 -17 -11 -142 15 -134 27 3 6 1 7 -4 4 -15 -9 -134 4 -127 14 2
4 -730 8 -1627 9 -898 0 -1636 3 -1642 7 -6 3 -7 2 -4 -4z m-1133 -486 c0 -1
-44 -45 -97 -97 l-98 -95 95 98 c88 90 100 102 100 94z m5555 -87 c33 -33 57
-60 54 -60 -2 0 -31 27 -64 60 -33 33 -57 60 -54 60 2 0 31 -27 64 -60z
m-1137 -97 c186 -43 322 -99 455 -186 305 -202 511 -507 585 -867 16 -79 17
-203 17 -1650 0 -1663 2 -1597 -47 -1778 -49 -182 -147 -361 -275 -503 -200
-221 -404 -347 -667 -414 -177 -45 -249 -47 -1846 -43 -1503 4 -1505 4 -1600
26 -142 32 -214 57 -335 117 -139 69 -224 132 -351 261 -175 177 -278 362
-342 611 l-27 108 0 1610 0 1610 27 105 c38 151 83 259 161 388 44 74 38 66
120 162 219 258 529 424 857 459 48 5 769 8 1630 7 1539 -2 1545 -2 1638 -23z
m1192 -5456 c0 -1 -28 -29 -62 -62 l-63 -60 60 63 c55 58 65 67 65 59z"/>
<path d="M6160 5648 c-294 -46 -444 -393 -277 -638 74 -109 181 -170 311 -178
99 -6 175 11 246 53 139 84 207 214 198 380 -13 246 -232 422 -478 383z"/>
<path d="M4220 5185 c-202 -25 -395 -82 -569 -168 -100 -50 -224 -121 -243
-140 -7 -7 -40 -33 -73 -57 -33 -24 -103 -86 -156 -139 -519 -520 -653 -1315
-331 -1969 228 -463 638 -797 1137 -925 172 -44 239 -52 450 -51 164 0 222 4
320 23 559 104 1026 457 1265 956 231 484 225 1055 -18 1540 -31 63 -118 207
-149 245 -162 206 -280 313 -495 446 -317 196 -751 287 -1138 239z m405 -626
c147 -20 318 -85 455 -173 68 -45 270 -234 270 -255 0 -5 6 -16 13 -23 51 -54
130 -219 162 -342 80 -297 39 -610 -113 -871 -60 -101 -247 -294 -347 -357
-206 -129 -383 -181 -630 -181 -236 -1 -428 52 -611 169 -77 49 -89 59 -214
184 -125 125 -175 200 -238 358 -50 124 -72 244 -72 394 0 139 15 234 55 354
29 88 109 238 158 299 287 357 655 504 1112 444z"/>
</g>
</svg>
