<svg version="1.0" xmlns="http://www.w3.org/2000/svg"
 width="360.000000pt" height="360.000000pt" viewBox="0 0 360.000000 360.000000"
 preserveAspectRatio="xMidYMid meet">

<g transform="translate(0.000000,360.000000) scale(0.100000,-0.100000)"
fill="#000000" stroke="none">
<path d="M1580 3584 c-653 -87 -1201 -508 -1446 -1111 -80 -198 -134 -469
-134 -673 0 -171 42 -418 100 -586 153 -441 485 -817 905 -1024 200 -98 353
-144 589 -175 251 -33 514 -5 772 80 469 156 859 504 1066 953 103 223 168
514 168 750 0 106 -21 285 -49 408 -80 356 -304 726 -583 960 -394 330 -900
483 -1388 418z m365 -958 c263 -36 497 -93 737 -180 126 -46 335 -139 374
-166 69 -48 85 -158 35 -227 -77 -106 -123 -110 -313 -25 -589 264 -1232 338
-1861 212 -189 -38 -222 -38 -274 -1 -106 77 -86 256 33 303 57 23 340 76 489
93 172 19 612 14 780 -9z m-50 -720 c300 -44 626 -145 876 -272 91 -46 126
-118 95 -198 -30 -79 -94 -146 -140 -146 -10 0 -64 21 -120 46 -206 95 -369
152 -546 191 -358 78 -777 74 -1133 -12 -119 -29 -154 -26 -201 19 -42 39 -57
89 -45 150 20 108 53 138 193 171 96 23 294 56 411 68 89 10 504 -2 610 -17z
m-70 -672 c225 -31 437 -95 650 -198 117 -57 132 -67 149 -102 43 -92 28 -195
-36 -234 -49 -29 -84 -25 -184 23 -261 128 -466 184 -756 207 -202 16 -403 -3
-635 -61 -122 -31 -122 -31 -159 -13 -56 28 -78 65 -78 127 1 57 30 132 60
158 48 40 322 94 569 113 83 6 303 -5 420 -20z"/>
</g>
</svg>
