<svg width="16" height="14" viewBox="0 0 16 14" fill="none" xmlns="http://www.w3.org/2000/svg">
<path d="M13.829 2.78613C14.4826 2.3954 14.9716 1.78016 15.2048 1.05528C14.5907 1.41968 13.9187 1.67637 13.2181 1.81426C12.2466 0.786632 10.7075 0.536555 9.46065 1.20376C8.21384 1.87097 7.56802 3.29028 7.88408 4.66862C5.36845 4.54233 3.02471 3.35402 1.43606 1.39941C0.606973 2.82945 1.03065 4.65753 2.40428 5.57706C1.90756 5.56109 1.42186 5.42661 0.987672 5.18481C0.987672 5.19794 0.987672 5.21106 0.987672 5.22418C0.987959 6.71382 2.03782 7.99695 3.49791 8.29217C3.03717 8.41752 2.5539 8.43597 2.08494 8.34612C2.49556 9.62003 3.66965 10.4928 5.00784 10.5188C3.89951 11.3887 2.53076 11.8604 1.12182 11.8581C0.872091 11.8585 0.622554 11.8441 0.374512 11.8151C1.80526 12.7345 3.47047 13.2225 5.17116 13.2208C7.53722 13.237 9.81107 12.3043 11.4841 10.6311C13.1571 8.95792 14.0897 6.68399 14.0733 4.31793C14.0733 4.18232 14.0701 4.04744 14.0638 3.91329C14.6766 3.47045 15.2054 2.92184 15.6255 2.29327C15.0546 2.5463 14.4491 2.71243 13.829 2.78613Z" fill="black"/>
</svg>
