<svg width="1512" height="982" viewBox="0 0 1512 982" fill="none"
    xmlns="http://www.w3.org/2000/svg">
    <path d="M916.421 542.8C968.5 444.5 1063.08 433.572 1113.66 420C1238.5 386.5 1271.5 307 1292.5 173C1307.43 77.7551 1309.5 -112 1605.66 -112V821.531H1113.66H498V693.134C537.069 599.578 669.401 598.393 733.677 618.289C782.198 633.309 853.313 661.916 916.421 542.8Z" fill="url(#paint0_linear_882_700)" stroke="#F6FDFF" stroke-width="3.78091"/>
    <path d="M916.421 612.8C978.176 463.111 1061.78 470.208 1113.66 463.111C1176.66 454.493 1269.5 422.5 1332.5 241.5C1364.19 150.45 1496.66 -24.5 1605.66 -42V891.531H1113.66H498V763.134C537.069 669.578 669.401 668.393 733.677 688.289C782.198 703.309 865.011 737.412 916.421 612.8Z" fill="url(#paint1_linear_882_700)" stroke="#F6FDFF" stroke-width="3.78091"/>
    <path d="M916.421 702.8C978.176 553.111 1061.78 560.208 1113.66 553.111C1176.66 544.493 1289.82 490.5 1360.16 344.5C1402 257.646 1496.66 142.5 1605.66 125V981.531H1113.66H498V853.134C537.069 759.578 669.401 758.393 733.677 778.289C782.198 793.309 865.011 827.412 916.421 702.8Z" fill="url(#paint2_linear_882_700)" stroke="#F6FDFF" stroke-width="3.78091"/>
    <mask id="path-4-outside-1_882_700" maskUnits="userSpaceOnUse" x="508.85" y="426.043" width="243" height="137" fill="black">
        <rect fill="white" x="508.85" y="426.043" width="243" height="137"/>
        <path fill-rule="evenodd" clip-rule="evenodd" d="M637.864 442.01C637.864 448.62 643.222 453.978 649.831 453.978H670.592C677.776 453.978 683.6 459.802 683.6 466.986C683.6 474.171 677.776 479.995 670.592 479.995H647.677C643.941 479.995 640.912 483.023 640.912 486.759C640.912 490.495 643.941 493.523 647.677 493.523H734.624C741.808 493.523 747.632 499.347 747.632 506.532C747.632 513.716 741.808 519.54 734.624 519.54H675.938C674.959 519.54 673.992 519.752 673.104 520.162C666.518 523.201 668.685 533.068 675.938 533.068H711.248C718.432 533.068 724.256 538.892 724.256 546.077C724.256 553.261 718.432 559.085 711.248 559.085H594.972C587.787 559.085 581.963 553.261 581.963 546.077V543.925C581.963 537.929 586.824 533.068 592.819 533.068H593.779C594.823 533.068 595.852 532.827 596.787 532.363C603.19 529.184 600.928 519.54 593.779 519.54H525.858C518.674 519.54 512.85 513.716 512.85 506.532C512.85 499.347 518.674 493.523 525.858 493.523H572.149C575.885 493.523 578.913 490.495 578.913 486.759C578.913 483.023 575.885 479.995 572.149 479.995H540.087C532.903 479.995 527.079 474.171 527.079 466.986C527.079 459.802 532.903 453.978 540.087 453.978H600.487C607.096 453.978 612.454 448.62 612.454 442.01C612.454 435.401 617.812 430.043 624.422 430.043L625.896 430.043C632.506 430.043 637.864 435.401 637.864 442.01Z"/>
    </mask>
    <path fill-rule="evenodd" clip-rule="evenodd" d="M637.864 442.01C637.864 448.62 643.222 453.978 649.831 453.978H670.592C677.776 453.978 683.6 459.802 683.6 466.986C683.6 474.171 677.776 479.995 670.592 479.995H647.677C643.941 479.995 640.912 483.023 640.912 486.759C640.912 490.495 643.941 493.523 647.677 493.523H734.624C741.808 493.523 747.632 499.347 747.632 506.532C747.632 513.716 741.808 519.54 734.624 519.54H675.938C674.959 519.54 673.992 519.752 673.104 520.162C666.518 523.201 668.685 533.068 675.938 533.068H711.248C718.432 533.068 724.256 538.892 724.256 546.077C724.256 553.261 718.432 559.085 711.248 559.085H594.972C587.787 559.085 581.963 553.261 581.963 546.077V543.925C581.963 537.929 586.824 533.068 592.819 533.068H593.779C594.823 533.068 595.852 532.827 596.787 532.363C603.19 529.184 600.928 519.54 593.779 519.54H525.858C518.674 519.54 512.85 513.716 512.85 506.532C512.85 499.347 518.674 493.523 525.858 493.523H572.149C575.885 493.523 578.913 490.495 578.913 486.759C578.913 483.023 575.885 479.995 572.149 479.995H540.087C532.903 479.995 527.079 474.171 527.079 466.986C527.079 459.802 532.903 453.978 540.087 453.978H600.487C607.096 453.978 612.454 448.62 612.454 442.01C612.454 435.401 617.812 430.043 624.422 430.043L625.896 430.043C632.506 430.043 637.864 435.401 637.864 442.01Z" fill="#D7F0E3"/>
    <path d="M525.858 519.54V515.759V519.54ZM593.779 519.54V523.321V519.54ZM596.787 532.363L595.106 528.976L596.787 532.363ZM675.938 519.54V515.759V519.54ZM673.104 520.162L671.52 516.729L673.104 520.162ZM649.831 457.759H670.592V450.197H649.831V457.759ZM670.592 476.214H647.677V483.776H670.592V476.214ZM647.677 497.304H734.624V489.742H647.677V497.304ZM734.624 515.759H675.938V523.321H734.624V515.759ZM675.938 536.849H711.248V529.288H675.938V536.849ZM711.248 555.304H594.972V562.866H711.248V555.304ZM585.744 546.077V543.925H578.182V546.077H585.744ZM592.819 536.849H593.779V529.288H592.819V536.849ZM593.779 515.759H525.858V523.321L593.779 523.321V515.759ZM525.858 497.304H572.149V489.742H525.858V497.304ZM572.149 476.214H540.087V483.776H572.149V476.214ZM540.087 457.759H600.487V450.197H540.087V457.759ZM624.422 433.824H625.896V426.262H624.422V433.824ZM625.896 433.824C630.417 433.824 634.083 437.489 634.083 442.01H641.645C641.645 433.313 634.594 426.262 625.896 426.262V433.824ZM616.235 442.01C616.235 437.489 619.901 433.824 624.422 433.824V426.262C615.724 426.262 608.673 433.313 608.673 442.01H616.235ZM600.487 457.759C609.184 457.759 616.235 450.708 616.235 442.01H608.673C608.673 446.532 605.008 450.197 600.487 450.197V457.759ZM530.859 466.986C530.859 461.89 534.991 457.759 540.087 457.759V450.197C530.814 450.197 523.298 457.714 523.298 466.986H530.859ZM540.087 476.214C534.991 476.214 530.859 472.082 530.859 466.986H523.298C523.298 476.259 530.814 483.776 540.087 483.776V476.214ZM582.694 486.759C582.694 480.935 577.973 476.214 572.149 476.214V483.776C573.797 483.776 575.133 485.111 575.133 486.759H582.694ZM572.149 497.304C577.973 497.304 582.694 492.583 582.694 486.759H575.133C575.133 488.407 573.797 489.742 572.149 489.742V497.304ZM516.631 506.532C516.631 501.435 520.762 497.304 525.858 497.304V489.742C516.585 489.742 509.069 497.259 509.069 506.532H516.631ZM525.858 515.759C520.762 515.759 516.631 511.628 516.631 506.532H509.069C509.069 515.804 516.585 523.321 525.858 523.321V515.759ZM598.468 535.749C608.45 530.794 604.923 515.759 593.779 515.759V523.321C596.932 523.321 597.93 527.574 595.106 528.976L598.468 535.749ZM593.779 536.849C595.406 536.849 597.011 536.473 598.468 535.749L595.106 528.976C594.694 529.181 594.24 529.288 593.779 529.288V536.849ZM585.744 543.925C585.744 540.017 588.912 536.849 592.819 536.849V529.288C584.736 529.288 578.182 535.841 578.182 543.925H585.744ZM594.972 555.304C589.875 555.304 585.744 551.173 585.744 546.077H578.182C578.182 555.349 585.699 562.866 594.972 562.866V555.304ZM720.475 546.077C720.475 551.173 716.344 555.304 711.248 555.304V562.866C720.52 562.866 728.037 555.349 728.037 546.077H720.475ZM711.248 536.849C716.344 536.849 720.475 540.981 720.475 546.077H728.037C728.037 536.804 720.52 529.288 711.248 529.288V536.849ZM671.52 516.729C661.252 521.467 664.631 536.849 675.938 536.849V529.288C672.739 529.288 671.783 524.936 674.688 523.595L671.52 516.729ZM675.938 515.759C674.412 515.759 672.905 516.09 671.52 516.729L674.688 523.595C675.08 523.414 675.506 523.321 675.938 523.321V515.759ZM743.851 506.532C743.851 511.628 739.72 515.759 734.624 515.759V523.321C743.896 523.321 751.413 515.804 751.413 506.532H743.851ZM734.624 497.304C739.72 497.304 743.851 501.435 743.851 506.532H751.413C751.413 497.259 743.896 489.742 734.624 489.742V497.304ZM637.131 486.759C637.131 492.583 641.853 497.304 647.677 497.304V489.742C646.029 489.742 644.693 488.407 644.693 486.759H637.131ZM647.677 476.214C641.853 476.214 637.131 480.935 637.131 486.759H644.693C644.693 485.111 646.029 483.776 647.677 483.776V476.214ZM679.819 466.986C679.819 472.082 675.688 476.214 670.592 476.214V483.776C679.864 483.776 687.381 476.259 687.381 466.986H679.819ZM670.592 457.759C675.688 457.759 679.819 461.89 679.819 466.986H687.381C687.381 457.714 679.864 450.197 670.592 450.197V457.759ZM649.831 450.197C645.31 450.197 641.645 446.532 641.645 442.01H634.083C634.083 450.708 641.134 457.759 649.831 457.759V450.197Z" fill="#F6FDFF" mask="url(#path-4-outside-1_882_700)"/>
    <g filter="url(#filter0_i_882_700)">
        <path d="M796.881 650.004C796.881 650.004 796.881 546.181 910.077 546.181C1023.27 546.181 1023.27 650.004 1023.27 650.004V941.427H796.881V650.004Z" fill="url(#paint3_linear_882_700)"/>
    </g>
    <path fill-rule="evenodd" clip-rule="evenodd" d="M839.268 603.203C853.228 605.059 864.011 617.28 864.011 632.08C864.011 646.879 853.228 659.1 839.268 660.956C840.478 661.117 841.712 661.2 842.965 661.2C858.672 661.2 871.405 648.162 871.405 632.08C871.405 615.997 858.672 602.959 842.965 602.959C841.712 602.959 840.478 603.042 839.268 603.203Z" fill="#DEEFE6"/>
    <path d="M997.606 781.188V725.978C971.077 737.462 915.241 703.862 933.116 640.292C949.509 581.99 1040.74 486.366 1045.7 405.759C1050.66 325.152 904.215 312.564 918.881 292.247C933.548 271.93 1029.96 309.252 1080 270.826C1107.94 249.37 1115.01 210.568 1029.96 151.13C944.146 91.1623 991.273 -53.5793 1015.76 -128.795L1016.16 -130H970.861C957.632 -50.4238 906.259 69.3665 977.117 151.13C1017.88 198.169 1084.74 227.32 1063.39 254.483C1040.98 282.987 905.508 240.129 885.88 288.493C866.253 336.857 1087.33 336.415 997.606 478.637C929.984 585.82 919.103 581.327 905.724 629.471C884.83 704.652 962.952 767.202 997.606 781.188Z" fill="url(#paint4_linear_882_700)"/>
    <path d="M710.088 752.648C648.333 602.959 564.733 610.057 512.85 602.959C400 587.522 360.996 436.5 376.5 265C391.626 97.678 318.167 -3.33334 288 -78.5H-36.4995V1031.38H512.85H1066.12V864.915C1016.34 797.813 957.108 811.467 892.832 831.364C844.31 846.384 761.498 877.261 710.088 752.648Z" fill="url(#paint5_linear_882_700)" stroke="#F6FDFF" stroke-width="3.78091"/>
    <path d="M681.101 797.168C619.346 647.479 545.828 648.124 493.945 641.027C380.5 625.508 315.31 546.449 250 277.5C178 -19 69.5 18.6667 -10 -19V1069.45H493.945H1073.06V902.982C1003.11 797.168 927.49 854.591 858.804 885.562C812.412 906.479 732.51 921.781 681.101 797.168Z" fill="url(#paint6_linear_882_700)" stroke="#F6FDFF" stroke-width="3.78091"/>
    <path d="M667.237 833.3C605.482 683.611 521.882 690.708 470 683.611C407 674.993 293.837 621 223.5 475C181.657 388.146 87 273 -22 255.5V1112.03H470H1085.66V983.634C1046.59 890.078 914.257 888.893 849.981 908.789C801.46 923.809 718.647 957.912 667.237 833.3Z" fill="url(#paint7_linear_882_700)" stroke="#F6FDFF" stroke-width="3.78091"/>
    <mask id="path-12-outside-2_882_700" maskUnits="userSpaceOnUse" x="495.986" y="302.125" width="204" height="61" fill="black">
        <rect fill="white" x="495.986" y="302.125" width="204" height="61"/>
        <path fill-rule="evenodd" clip-rule="evenodd" d="M510.979 349.162C510.979 355.217 515.887 360.125 521.942 360.125H631.928C637.983 360.125 642.891 355.217 642.891 349.162C642.891 343.108 637.983 338.199 631.928 338.199H624.607C621.459 338.199 618.907 335.647 618.907 332.499C618.907 329.35 621.459 326.798 624.607 326.798H685.891C691.946 326.798 696.854 321.89 696.854 315.835C696.854 309.78 691.946 304.872 685.891 304.872H509.949C503.895 304.872 498.986 309.78 498.986 315.835C498.986 321.89 503.895 326.798 509.949 326.798H548.963C552.111 326.798 554.664 329.35 554.664 332.499C554.664 335.647 552.111 338.199 548.963 338.199H521.942C515.887 338.199 510.979 343.108 510.979 349.162Z"/>
    </mask>
    <path fill-rule="evenodd" clip-rule="evenodd" d="M510.979 349.162C510.979 355.217 515.887 360.125 521.942 360.125H631.928C637.983 360.125 642.891 355.217 642.891 349.162C642.891 343.108 637.983 338.199 631.928 338.199H624.607C621.459 338.199 618.907 335.647 618.907 332.499C618.907 329.35 621.459 326.798 624.607 326.798H685.891C691.946 326.798 696.854 321.89 696.854 315.835C696.854 309.78 691.946 304.872 685.891 304.872H509.949C503.895 304.872 498.986 309.78 498.986 315.835C498.986 321.89 503.895 326.798 509.949 326.798H548.963C552.111 326.798 554.664 329.35 554.664 332.499C554.664 335.647 552.111 338.199 548.963 338.199H521.942C515.887 338.199 510.979 343.108 510.979 349.162Z" fill="#D7F0E3"/>
    <path d="M631.928 362.63H521.942V357.621H631.928V362.63ZM624.607 335.695H631.928V340.704H624.607V335.695ZM624.607 324.293H685.891V329.303H624.607V324.293ZM685.891 307.377H509.949V302.367H685.891V307.377ZM509.949 324.293H548.963V329.303H509.949V324.293ZM521.942 335.695H548.963V340.704H521.942V335.695ZM521.942 340.704C517.271 340.704 513.484 344.491 513.484 349.162H508.474C508.474 341.725 514.504 335.695 521.942 335.695V340.704ZM557.168 332.499C557.168 337.03 553.495 340.704 548.963 340.704V335.695C550.728 335.695 552.159 334.264 552.159 332.499H557.168ZM548.963 324.293C553.495 324.293 557.168 327.967 557.168 332.499H552.159C552.159 330.734 550.728 329.303 548.963 329.303V324.293ZM501.491 315.835C501.491 320.506 505.278 324.293 509.949 324.293V329.303C502.511 329.303 496.482 323.273 496.482 315.835H501.491ZM509.949 307.377C505.278 307.377 501.491 311.164 501.491 315.835H496.482C496.482 308.397 502.511 302.367 509.949 302.367V307.377ZM694.35 315.835C694.35 311.164 690.563 307.377 685.891 307.377V302.367C693.329 302.367 699.359 308.397 699.359 315.835H694.35ZM685.891 324.293C690.563 324.293 694.35 320.506 694.35 315.835H699.359C699.359 323.273 693.329 329.303 685.891 329.303V324.293ZM616.402 332.499C616.402 327.967 620.076 324.293 624.607 324.293V329.303C622.842 329.303 621.411 330.734 621.411 332.499H616.402ZM624.607 340.704C620.076 340.704 616.402 337.03 616.402 332.499H621.411C621.411 334.264 622.842 335.695 624.607 335.695V340.704ZM640.386 349.162C640.386 344.491 636.599 340.704 631.928 340.704V335.695C639.366 335.695 645.395 341.725 645.395 349.162H640.386ZM521.942 362.63C514.504 362.63 508.474 356.6 508.474 349.162H513.484C513.484 353.834 517.271 357.621 521.942 357.621V362.63ZM631.928 357.621C636.599 357.621 640.386 353.834 640.386 349.162H645.395C645.395 356.6 639.366 362.63 631.928 362.63V357.621Z" fill="#F6FDFF" mask="url(#path-12-outside-2_882_700)"/>
    <mask id="path-14-outside-3_882_700" maskUnits="userSpaceOnUse" x="251" y="452.221" width="171" height="69" fill="black">
        <rect fill="white" x="251" y="452.221" width="171" height="69"/>
        <path fill-rule="evenodd" clip-rule="evenodd" d="M265.993 507.258C265.993 513.313 270.901 518.221 276.956 518.221H386.942C392.996 518.221 397.905 513.313 397.905 507.258C397.905 501.203 392.996 496.295 386.942 496.295H383.568C378.239 496.295 373.92 491.976 373.92 486.647C373.92 481.319 378.239 477 383.568 477L408 477C414.075 477 419 472.075 419 466C419 459.925 414.075 455 408 455H265C258.925 455 254 459.925 254 466C254 472.075 258.925 477 265 477L300.03 477C305.358 477 309.677 481.319 309.677 486.647C309.677 491.976 305.358 496.295 300.03 496.295H276.956C270.901 496.295 265.993 501.203 265.993 507.258Z"/>
    </mask>
    <path fill-rule="evenodd" clip-rule="evenodd" d="M265.993 507.258C265.993 513.313 270.901 518.221 276.956 518.221H386.942C392.996 518.221 397.905 513.313 397.905 507.258C397.905 501.203 392.996 496.295 386.942 496.295H383.568C378.239 496.295 373.92 491.976 373.92 486.647C373.92 481.319 378.239 477 383.568 477L408 477C414.075 477 419 472.075 419 466C419 459.925 414.075 455 408 455H265C258.925 455 254 459.925 254 466C254 472.075 258.925 477 265 477L300.03 477C305.358 477 309.677 481.319 309.677 486.647C309.677 491.976 305.358 496.295 300.03 496.295H276.956C270.901 496.295 265.993 501.203 265.993 507.258Z" fill="#D7F0E3"/>
    <path d="M265 477L265 474.495L265 477ZM383.568 477V479.505V477ZM386.942 520.725H276.956V515.716H386.942V520.725ZM383.568 493.79H386.942V498.799H383.568V493.79ZM383.568 474.495L408 474.495V479.505L383.568 479.505V474.495ZM408 457.505H265V452.495H408V457.505ZM265 474.495L300.03 474.495V479.505L265 479.505L265 474.495ZM276.956 493.79H300.03V498.799H276.956V493.79ZM276.956 498.799C272.284 498.799 268.497 502.586 268.497 507.258H263.488C263.488 499.82 269.518 493.79 276.956 493.79V498.799ZM312.182 486.647C312.182 493.359 306.741 498.799 300.03 498.799V493.79C303.975 493.79 307.173 490.592 307.173 486.647H312.182ZM300.03 474.495C306.741 474.495 312.182 479.936 312.182 486.647H307.173C307.173 482.703 303.975 479.505 300.03 479.505V474.495ZM256.505 466C256.505 470.692 260.308 474.495 265 474.495L265 479.505C257.542 479.505 251.495 473.458 251.495 466H256.505ZM265 457.505C260.308 457.505 256.505 461.308 256.505 466H251.495C251.495 458.542 257.542 452.495 265 452.495V457.505ZM416.495 466C416.495 461.308 412.692 457.505 408 457.505V452.495C415.458 452.495 421.505 458.542 421.505 466H416.495ZM408 474.495C412.692 474.495 416.495 470.692 416.495 466H421.505C421.505 473.458 415.458 479.505 408 479.505V474.495ZM371.415 486.647C371.415 479.936 376.856 474.495 383.568 474.495V479.505C379.623 479.505 376.425 482.703 376.425 486.647H371.415ZM383.568 498.799C376.856 498.799 371.415 493.359 371.415 486.647H376.425C376.425 490.592 379.623 493.79 383.568 493.79V498.799ZM395.4 507.258C395.4 502.586 391.613 498.799 386.942 498.799V493.79C394.38 493.79 400.409 499.82 400.409 507.258H395.4ZM276.956 520.725C269.518 520.725 263.488 514.696 263.488 507.258H268.497C268.497 511.929 272.284 515.716 276.956 515.716V520.725ZM386.942 515.716C391.613 515.716 395.4 511.929 395.4 507.258H400.409C400.409 514.696 394.38 520.725 386.942 520.725V515.716Z" fill="#F6FDFF" mask="url(#path-14-outside-3_882_700)"/>
    <mask id="path-16-outside-4_882_700" maskUnits="userSpaceOnUse" x="1158" y="211" width="213" height="69" fill="black">
        <rect fill="white" x="1158" y="211" width="213" height="69"/>
        <path fill-rule="evenodd" clip-rule="evenodd" d="M1240 266C1240 272.075 1244.92 277 1251 277H1336C1342.08 277 1347 272.075 1347 266C1347 259.925 1342.08 255 1336 255H1332.42C1327.17 255 1322.92 250.747 1322.92 245.5C1322.92 240.253 1327.17 236 1332.42 236L1357 236C1363.08 236 1368 231.075 1368 225C1368 218.925 1363.08 214 1357 214H1172C1165.92 214 1161 218.925 1161 225C1161 231.075 1165.92 236 1172 236L1249.18 236C1254.42 236 1258.68 240.335 1258.68 245.581C1258.68 250.739 1254.5 255 1249.34 255C1244.18 255 1240 259.181 1240 264.339V266Z"/>
    </mask>
    <path fill-rule="evenodd" clip-rule="evenodd" d="M1240 266C1240 272.075 1244.92 277 1251 277H1336C1342.08 277 1347 272.075 1347 266C1347 259.925 1342.08 255 1336 255H1332.42C1327.17 255 1322.92 250.747 1322.92 245.5C1322.92 240.253 1327.17 236 1332.42 236L1357 236C1363.08 236 1368 231.075 1368 225C1368 218.925 1363.08 214 1357 214H1172C1165.92 214 1161 218.925 1161 225C1161 231.075 1165.92 236 1172 236L1249.18 236C1254.42 236 1258.68 240.335 1258.68 245.581C1258.68 250.739 1254.5 255 1249.34 255C1244.18 255 1240 259.181 1240 264.339V266Z" fill="#D7F0E3"/>
    <path d="M1249.18 236V233.495V236ZM1172 236L1172 233.495L1172 236ZM1357 236V238.505V236ZM1332.42 236V238.505V236ZM1336 279.505H1251V274.495H1336V279.505ZM1332.42 252.495H1336V257.505H1332.42V252.495ZM1332.42 233.495L1357 233.495V238.505L1332.42 238.505V233.495ZM1357 216.505H1172V211.495H1357V216.505ZM1172 233.495L1249.18 233.495V238.505L1172 238.505L1172 233.495ZM1237.5 266V264.339H1242.5V266H1237.5ZM1249.34 257.505C1245.56 257.505 1242.5 260.564 1242.5 264.339H1237.5C1237.5 257.798 1242.8 252.495 1249.34 252.495V257.505ZM1261.18 245.581C1261.18 252.094 1255.91 257.505 1249.34 257.505V252.495C1253.09 252.495 1256.17 249.384 1256.17 245.581H1261.18ZM1249.18 233.495C1255.83 233.495 1261.18 238.979 1261.18 245.581H1256.17C1256.17 241.69 1253.01 238.505 1249.18 238.505V233.495ZM1163.5 225C1163.5 229.692 1167.31 233.495 1172 233.495L1172 238.505C1164.54 238.505 1158.5 232.458 1158.5 225H1163.5ZM1172 216.505C1167.31 216.505 1163.5 220.308 1163.5 225H1158.5C1158.5 217.542 1164.54 211.495 1172 211.495V216.505ZM1365.5 225C1365.5 220.308 1361.69 216.505 1357 216.505V211.495C1364.46 211.495 1370.5 217.542 1370.5 225H1365.5ZM1357 233.495C1361.69 233.495 1365.5 229.692 1365.5 225H1370.5C1370.5 232.458 1364.46 238.505 1357 238.505V233.495ZM1320.42 245.5C1320.42 238.87 1325.79 233.495 1332.42 233.495V238.505C1328.56 238.505 1325.42 241.637 1325.42 245.5H1320.42ZM1332.42 257.505C1325.79 257.505 1320.42 252.13 1320.42 245.5H1325.42C1325.42 249.363 1328.56 252.495 1332.42 252.495V257.505ZM1344.5 266C1344.5 261.308 1340.69 257.505 1336 257.505V252.495C1343.46 252.495 1349.5 258.542 1349.5 266H1344.5ZM1251 279.505C1243.54 279.505 1237.5 273.458 1237.5 266H1242.5C1242.5 270.692 1246.31 274.495 1251 274.495V279.505ZM1336 274.495C1340.69 274.495 1344.5 270.692 1344.5 266H1349.5C1349.5 273.458 1343.46 279.505 1336 279.505V274.495Z" fill="#F6FDFF" mask="url(#path-16-outside-4_882_700)"/>
    <mask id="path-18-outside-5_882_700" maskUnits="userSpaceOnUse" x="613.456" y="645.415" width="219" height="102" fill="black">
        <rect fill="white" x="613.456" y="645.415" width="219" height="102"/>
        <path fill-rule="evenodd" clip-rule="evenodd" d="M630.209 661.073C630.209 654.634 635.429 649.415 641.868 649.415H758.832C765.27 649.415 770.49 654.634 770.49 661.073C770.49 667.512 765.27 672.732 758.832 672.732H751.047C747.699 672.732 744.984 675.446 744.984 678.794C744.984 682.142 747.699 684.856 751.047 684.856H816.219C822.658 684.856 827.877 690.076 827.877 696.515C827.877 702.954 822.658 708.173 816.219 708.173H629.115C622.676 708.173 617.456 702.954 617.456 696.515C617.456 690.076 622.676 684.856 629.115 684.856H670.603C673.952 684.856 676.666 682.142 676.666 678.794C676.666 675.446 673.952 672.732 670.603 672.732H641.868C635.429 672.732 630.209 667.512 630.209 661.073ZM799.255 714.236C796.162 715.664 797.179 720.298 800.587 720.298H820.358C824.511 720.298 827.878 723.665 827.878 727.818V731.957C827.878 738.396 822.658 743.615 816.219 743.615H741.157C734.719 743.615 729.499 738.396 729.499 731.957V730.029C729.499 724.655 733.855 720.298 739.229 720.298C740.731 720.298 742.212 719.951 743.556 719.283L763.897 709.185C765.238 708.52 766.715 708.174 768.211 708.174H797.924C801.331 708.174 802.349 712.808 799.255 714.236Z"/>
    </mask>
    <path fill-rule="evenodd" clip-rule="evenodd" d="M630.209 661.073C630.209 654.634 635.429 649.415 641.868 649.415H758.832C765.27 649.415 770.49 654.634 770.49 661.073C770.49 667.512 765.27 672.732 758.832 672.732H751.047C747.699 672.732 744.984 675.446 744.984 678.794C744.984 682.142 747.699 684.856 751.047 684.856H816.219C822.658 684.856 827.877 690.076 827.877 696.515C827.877 702.954 822.658 708.173 816.219 708.173H629.115C622.676 708.173 617.456 702.954 617.456 696.515C617.456 690.076 622.676 684.856 629.115 684.856H670.603C673.952 684.856 676.666 682.142 676.666 678.794C676.666 675.446 673.952 672.732 670.603 672.732H641.868C635.429 672.732 630.209 667.512 630.209 661.073ZM799.255 714.236C796.162 715.664 797.179 720.298 800.587 720.298H820.358C824.511 720.298 827.878 723.665 827.878 727.818V731.957C827.878 738.396 822.658 743.615 816.219 743.615H741.157C734.719 743.615 729.499 738.396 729.499 731.957V730.029C729.499 724.655 733.855 720.298 739.229 720.298C740.731 720.298 742.212 719.951 743.556 719.283L763.897 709.185C765.238 708.52 766.715 708.174 768.211 708.174H797.924C801.331 708.174 802.349 712.808 799.255 714.236Z" fill="#D7F0E3"/>
    <path d="M763.897 709.185L762.216 705.799L763.897 709.185ZM743.556 719.283L745.237 722.67L743.556 719.283ZM799.255 714.236L800.839 717.669L799.255 714.236ZM758.832 645.634H641.868V653.195H758.832V645.634ZM751.047 676.512H758.832V668.951H751.047V676.512ZM816.219 681.076H751.047V688.637H816.219V681.076ZM629.115 711.954H816.219V704.393H629.115V711.954ZM670.603 681.076H629.115V688.637H670.603V681.076ZM641.868 676.512H670.603V668.951H641.868V676.512ZM800.587 724.079H820.358V716.517H800.587V724.079ZM824.097 727.818V731.957H831.659V727.818H824.097ZM816.219 739.834H741.157V747.396H816.219V739.834ZM733.28 731.957V730.029H725.718V731.957H733.28ZM745.237 722.67L765.578 712.572L762.216 705.799L741.875 715.897L745.237 722.67ZM768.211 711.954H797.924V704.393H768.211V711.954ZM797.924 711.954C797.87 711.954 797.691 711.919 797.526 711.775C797.392 711.659 797.349 711.545 797.334 711.48C797.32 711.416 797.312 711.294 797.385 711.133C797.475 710.933 797.622 710.825 797.671 710.803L800.839 717.669C807.614 714.542 805.385 704.393 797.924 704.393V711.954ZM765.578 712.572C766.397 712.166 767.298 711.954 768.211 711.954V704.393C766.131 704.393 764.079 704.874 762.216 705.799L765.578 712.572ZM739.229 724.079C741.314 724.079 743.37 723.597 745.237 722.67L741.875 715.897C741.053 716.305 740.147 716.517 739.229 716.517V724.079ZM733.28 730.029C733.28 726.743 735.944 724.079 739.229 724.079V716.517C731.767 716.517 725.718 722.567 725.718 730.029H733.28ZM741.157 739.834C736.807 739.834 733.28 736.308 733.28 731.957H725.718C725.718 740.484 732.63 747.396 741.157 747.396V739.834ZM824.097 731.957C824.097 736.308 820.57 739.834 816.219 739.834V747.396C824.746 747.396 831.659 740.484 831.659 731.957H824.097ZM820.358 724.079C822.423 724.079 824.097 725.753 824.097 727.818H831.659C831.659 721.577 826.599 716.517 820.358 716.517V724.079ZM800.587 716.517C800.64 716.517 800.819 716.553 800.985 716.697C801.118 716.812 801.162 716.927 801.176 716.991C801.19 717.056 801.198 717.178 801.126 717.339C801.036 717.539 800.888 717.647 800.839 717.669L797.671 710.803C790.896 713.929 793.125 724.079 800.587 724.079V716.517ZM641.868 668.951C637.517 668.951 633.99 665.424 633.99 661.073H626.428C626.428 669.6 633.341 676.512 641.868 676.512V668.951ZM680.447 678.794C680.447 673.358 676.04 668.951 670.603 668.951V676.512C671.863 676.512 672.885 677.534 672.885 678.794H680.447ZM670.603 688.637C676.04 688.637 680.447 684.23 680.447 678.794H672.885C672.885 680.054 671.863 681.076 670.603 681.076V688.637ZM621.237 696.515C621.237 692.164 624.764 688.637 629.115 688.637V681.076C620.588 681.076 613.675 687.988 613.675 696.515H621.237ZM629.115 704.393C624.764 704.393 621.237 700.866 621.237 696.515H613.675C613.675 705.042 620.588 711.954 629.115 711.954V704.393ZM824.096 696.515C824.096 700.866 820.569 704.393 816.219 704.393V711.954C824.746 711.954 831.658 705.042 831.658 696.515H824.096ZM816.219 688.637C820.569 688.637 824.096 692.164 824.096 696.515H831.658C831.658 687.988 824.746 681.076 816.219 681.076V688.637ZM741.203 678.794C741.203 684.23 745.61 688.637 751.047 688.637V681.076C749.787 681.076 748.765 680.054 748.765 678.794H741.203ZM751.047 668.951C745.61 668.951 741.203 673.358 741.203 678.794H748.765C748.765 677.534 749.787 676.512 751.047 676.512V668.951ZM766.709 661.073C766.709 665.424 763.182 668.951 758.832 668.951V676.512C767.358 676.512 774.271 669.6 774.271 661.073H766.709ZM641.868 645.634C633.341 645.634 626.428 652.546 626.428 661.073H633.99C633.99 656.722 637.517 653.195 641.868 653.195V645.634ZM758.832 653.195C763.182 653.195 766.709 656.722 766.709 661.073H774.271C774.271 652.546 767.358 645.634 758.832 645.634V653.195Z" fill="#F6FDFF" mask="url(#path-18-outside-5_882_700)"/>
    <path d="M698.115 608.121L699.052 621.288L708.809 612.657L700.378 622.646L713.239 623.606L700.378 624.566L708.809 634.556L699.052 625.924L698.115 639.091L697.177 625.924L687.421 634.556L695.851 624.566L682.991 623.606L695.851 622.646L687.421 612.657L697.177 621.288L698.115 608.121Z" fill="#DEEFE6"/>
    <path d="M754.829 591.346L755.22 596.832L759.285 593.235L755.772 597.398L761.13 597.798L755.772 598.198L759.285 602.36L755.22 598.763L754.829 604.25L754.438 598.763L750.373 602.36L753.886 598.198L748.527 597.798L753.886 597.398L750.373 593.235L754.438 596.832L754.829 591.346Z" fill="#DEEFE6"/>
    <path d="M588.468 571.989L589.25 582.962L597.38 575.769L590.355 584.093L601.071 584.893L590.355 585.693L597.38 594.018L589.25 586.825L588.468 597.798L587.687 586.825L579.557 594.018L586.582 585.693L575.865 584.893L586.582 584.093L579.557 575.769L587.687 582.962L588.468 571.989Z" fill="#DEEFE6"/>
    <path d="M835.489 796.523L836.27 807.495L844.4 800.302L837.375 808.627L848.092 809.427L837.375 810.227L844.4 818.551L836.27 811.358L835.489 822.331L834.707 811.358L826.577 818.551L833.603 810.227L822.886 809.427L833.603 808.627L826.577 800.302L834.707 807.495L835.489 796.523Z" fill="#F6FDFF"/>
    <path d="M436.603 744L437.384 754.973L445.515 747.78L438.489 756.104L449.206 756.904L438.489 757.704L445.515 766.029L437.384 758.836L436.603 769.808L435.822 758.836L427.691 766.029L434.717 757.704L424 756.904L434.717 756.104L427.691 747.78L435.822 754.973L436.603 744Z" fill="#F6FDFF"/>
    <path d="M118.603 461L119.384 471.973L127.515 464.78L120.489 473.104L131.206 473.904L120.489 474.704L127.515 483.029L119.384 475.836L118.603 486.808L117.822 475.836L109.691 483.029L116.717 474.704L106 473.904L116.717 473.104L109.691 464.78L117.822 471.973L118.603 461Z" fill="#F6FDFF"/>
    <path d="M230.603 355L231.384 365.973L239.515 358.78L232.489 367.104L243.206 367.904L232.489 368.704L239.515 377.029L231.384 369.836L230.603 380.808L229.822 369.836L221.691 377.029L228.717 368.704L218 367.904L228.717 367.104L221.691 358.78L229.822 365.973L230.603 355Z" fill="#F6FDFF"/>
    <path d="M183.5 297L183.903 302.527L188.096 298.904L184.473 303.097L190 303.5L184.473 303.903L188.096 308.096L183.903 304.473L183.5 310L183.097 304.473L178.904 308.096L182.527 303.903L177 303.5L182.527 303.097L178.904 298.904L183.097 302.527L183.5 297Z" fill="#F6FDFF"/>
    <path d="M304.5 160L304.903 165.527L309.096 161.904L305.473 166.097L311 166.5L305.473 166.903L309.096 171.096L304.903 167.473L304.5 173L304.097 167.473L299.904 171.096L303.527 166.903L298 166.5L303.527 166.097L299.904 161.904L304.097 165.527L304.5 160Z" fill="#F6FDFF"/>
    <path d="M1264.5 596L1264.9 601.527L1269.1 597.904L1265.47 602.097L1271 602.5L1265.47 602.903L1269.1 607.096L1264.9 603.473L1264.5 609L1264.1 603.473L1259.9 607.096L1263.53 602.903L1258 602.5L1263.53 602.097L1259.9 597.904L1264.1 601.527L1264.5 596Z" fill="#F6FDFF"/>
    <path d="M1392.5 448L1392.9 453.527L1397.1 449.904L1393.47 454.097L1399 454.5L1393.47 454.903L1397.1 459.096L1392.9 455.473L1392.5 461L1392.1 455.473L1387.9 459.096L1391.53 454.903L1386 454.5L1391.53 454.097L1387.9 449.904L1392.1 453.527L1392.5 448Z" fill="#F6FDFF"/>
    <path d="M1405.5 172L1405.9 177.527L1410.1 173.904L1406.47 178.097L1412 178.5L1406.47 178.903L1410.1 183.096L1405.9 179.473L1405.5 185L1405.1 179.473L1400.9 183.096L1404.53 178.903L1399 178.5L1404.53 178.097L1400.9 173.904L1405.1 177.527L1405.5 172Z" fill="#F6FDFF"/>
    <path d="M1338.5 79L1338.9 84.5272L1343.1 80.9038L1339.47 85.097L1345 85.5L1339.47 85.903L1343.1 90.0962L1338.9 86.4728L1338.5 92L1338.1 86.4728L1333.9 90.0962L1337.53 85.903L1332 85.5L1337.53 85.097L1333.9 80.9038L1338.1 84.5272L1338.5 79Z" fill="#F6FDFF"/>
    <path d="M976.642 681.675L977.423 692.648L985.554 685.455L978.528 693.779L989.245 694.579L978.528 695.379L985.554 703.704L977.423 696.511L976.642 707.483L975.861 696.511L967.73 703.704L974.756 695.379L964.039 694.579L974.756 693.779L967.73 685.455L975.861 692.648L976.642 681.675Z" fill="#F6FDFF"/>
    <path d="M1148.6 571L1149.38 581.973L1157.51 574.78L1150.49 583.104L1161.21 583.904L1150.49 584.704L1157.51 593.029L1149.38 585.836L1148.6 596.808L1147.82 585.836L1139.69 593.029L1146.72 584.704L1136 583.904L1146.72 583.104L1139.69 574.78L1147.82 581.973L1148.6 571Z" fill="#F6FDFF"/>
    <path d="M1223.6 450L1224.38 460.973L1232.51 453.78L1225.49 462.104L1236.21 462.904L1225.49 463.704L1232.51 472.029L1224.38 464.836L1223.6 475.808L1222.82 464.836L1214.69 472.029L1221.72 463.704L1211 462.904L1221.72 462.104L1214.69 453.78L1222.82 460.973L1223.6 450Z" fill="#F6FDFF"/>
    <path d="M1438.6 332L1439.38 342.973L1447.51 335.78L1440.49 344.104L1451.21 344.904L1440.49 345.704L1447.51 354.029L1439.38 346.836L1438.6 357.808L1437.82 346.836L1429.69 354.029L1436.72 345.704L1426 344.904L1436.72 344.104L1429.69 335.78L1437.82 342.973L1438.6 332Z" fill="#F6FDFF"/>
    <path d="M1438.6 140L1439.38 150.973L1447.51 143.78L1440.49 152.104L1451.21 152.904L1440.49 153.704L1447.51 162.029L1439.38 154.836L1438.6 165.808L1437.82 154.836L1429.69 162.029L1436.72 153.704L1426 152.904L1436.72 152.104L1429.69 143.78L1437.82 150.973L1438.6 140Z" fill="#F6FDFF"/>
    <path d="M1380.6 42L1381.38 52.9729L1389.51 45.7796L1382.49 54.1042L1393.21 54.9042L1382.49 55.7042L1389.51 64.0289L1381.38 56.8356L1380.6 67.8084L1379.82 56.8356L1371.69 64.0289L1378.72 55.7042L1368 54.9042L1378.72 54.1042L1371.69 45.7796L1379.82 52.9729L1380.6 42Z" fill="#F6FDFF"/>
    <path d="M895.983 707.483L896.295 703.094L899.547 705.972L896.737 702.642L901.024 702.322L896.737 702.002L899.547 698.672L896.295 701.549L895.983 697.16L895.67 701.549L892.418 698.672L895.228 702.002L890.941 702.322L895.228 702.642L892.418 705.972L895.67 703.094L895.983 707.483Z" fill="#F6FDFF"/>
    <path d="M974.122 649.414L974.435 645.025L977.687 647.903L974.877 644.573L979.163 644.253L974.877 643.933L977.687 640.603L974.435 643.48L974.122 639.091L973.81 643.48L970.558 640.603L973.368 643.933L969.081 644.253L973.368 644.573L970.558 647.903L973.81 645.025L974.122 649.414Z" fill="#F6FDFF"/>
    <path d="M964.039 796.523L964.352 792.133L967.604 795.011L964.794 791.681L969.08 791.361L964.794 791.041L967.604 787.711L964.352 790.588L964.039 786.199L963.727 790.588L960.475 787.711L963.285 791.041L958.998 791.361L963.285 791.681L960.475 795.011L963.727 792.133L964.039 796.523Z" fill="#F6FDFF"/>
    <path d="M888.421 632.639L888.734 628.25L891.986 631.127L889.176 627.797L893.462 627.477L889.176 627.157L891.986 623.827L888.734 626.705L888.421 622.316L888.109 626.705L884.856 623.827L887.667 627.157L883.38 627.477L887.667 627.797L884.856 631.127L888.109 628.25L888.421 632.639Z" fill="#F6FDFF"/>
    <path d="M817.844 649.414L818.156 645.025L821.409 647.903L818.598 644.573L822.885 644.253L818.598 643.933L821.409 640.603L818.156 643.48L817.844 639.091L817.531 643.48L814.279 640.603L817.089 643.933L812.803 644.253L817.089 644.573L814.279 647.903L817.531 645.025L817.844 649.414Z" fill="#F6FDFF"/>
    <path d="M897.243 734.582L897.79 742.263L903.481 737.228L898.563 743.055L906.065 743.615L898.563 744.175L903.481 750.002L897.79 744.967L897.243 752.648L896.696 744.967L891.005 750.002L895.923 744.175L888.421 743.615L895.923 743.055L891.005 737.228L896.696 742.263L897.243 734.582Z" fill="#DEEFE6"/>
    <path d="M854.393 706.193L854.784 711.679L858.849 708.083L855.336 712.245L860.695 712.645L855.336 713.045L858.849 717.207L854.784 713.611L854.393 719.097L854.003 713.611L849.937 717.207L853.45 713.045L848.092 712.645L853.45 712.245L849.937 708.083L854.003 711.679L854.393 706.193Z" fill="#DEEFE6"/>
    <path d="M952.697 664.899L953.088 670.386L957.153 666.789L953.64 670.952L958.999 671.352L953.64 671.752L957.153 675.914L953.088 672.317L952.697 677.804L952.306 672.317L948.241 675.914L951.754 671.752L946.396 671.352L951.754 670.952L948.241 666.789L952.306 670.386L952.697 664.899Z" fill="#DEEFE6"/>
    <path d="M894.722 582.313L895.113 587.799L899.178 584.202L895.666 588.365L901.024 588.765L895.666 589.165L899.178 593.327L895.113 589.73L894.722 595.217L894.332 589.73L890.267 593.327L893.779 589.165L888.421 588.765L893.779 588.365L890.267 584.202L894.332 587.799L894.722 582.313Z" fill="#DEEFE6"/>
    <path d="M950.176 426.172L951.035 438.242L959.979 430.329L952.251 439.486L964.039 440.366L952.251 441.246L959.979 450.403L951.035 442.491L950.176 454.561L949.316 442.491L940.373 450.403L948.101 441.246L936.312 440.366L948.101 439.486L940.373 430.329L949.316 438.242L950.176 426.172Z" fill="#DEEFE6"/>
    <path d="M883.38 352.618L884.083 362.493L891.4 356.019L885.078 363.511L894.723 364.231L885.078 364.951L891.4 372.444L884.083 365.97L883.38 375.845L882.677 365.97L875.359 372.444L881.682 364.951L872.037 364.231L881.682 363.511L875.359 356.019L882.677 362.493L883.38 352.618Z" fill="#DEEFE6"/>
    <path d="M682.991 303.582L683.851 315.652L692.794 307.739L685.066 316.896L696.855 317.776L685.066 318.656L692.794 327.813L683.851 319.901L682.991 331.971L682.132 319.901L673.188 327.813L680.916 318.656L669.128 317.776L680.916 316.896L673.188 307.739L682.132 315.652L682.991 303.582Z" fill="#DEEFE6"/>
    <defs>
        <filter id="filter0_i_882_700" x="796.881" y="546.181" width="226.393" height="395.246" filterUnits="userSpaceOnUse" color-interpolation-filters="sRGB">
            <feFlood flood-opacity="0" result="BackgroundImageFix"/>
            <feBlend mode="normal" in="SourceGraphic" in2="BackgroundImageFix" result="shape"/>
            <feColorMatrix in="SourceAlpha" type="matrix" values="0 0 0 0 0 0 0 0 0 0 0 0 0 0 0 0 0 0 127 0" result="hardAlpha"/>
            <feOffset dx="-27.7267" dy="27.7267"/>
            <feComposite in2="hardAlpha" operator="arithmetic" k2="-1" k3="1"/>
            <feColorMatrix type="matrix" values="0 0 0 0 0.870588 0 0 0 0 0.937255 0 0 0 0 0.901961 0 0 0 1 0"/>
            <feBlend mode="normal" in2="shape" result="effect1_innerShadow_882_700"/>
        </filter>
        <linearGradient id="paint0_linear_882_700" x1="805.829" y1="393.111" x2="805.829" y2="821.531" gradientUnits="userSpaceOnUse">
            <stop stop-color="#9BD3B5"/>
            <stop offset="0.356304" stop-color="#DEEFE6"/>
            <stop offset="0.799989" stop-color="#F6FDFF"/>
        </linearGradient>
        <linearGradient id="paint1_linear_882_700" x1="805.829" y1="463.111" x2="805.829" y2="891.531" gradientUnits="userSpaceOnUse">
            <stop stop-color="#9BD3B5"/>
            <stop offset="0.356304" stop-color="#DEEFE6"/>
            <stop offset="0.799989" stop-color="#F6FDFF"/>
        </linearGradient>
        <linearGradient id="paint2_linear_882_700" x1="805.829" y1="553.111" x2="805.829" y2="981.531" gradientUnits="userSpaceOnUse">
            <stop stop-color="#9BD3B5"/>
            <stop offset="0.356304" stop-color="#DEEFE6"/>
            <stop offset="0.799989" stop-color="#F6FDFF"/>
        </linearGradient>
        <linearGradient id="paint3_linear_882_700" x1="910.077" y1="546.181" x2="910.077" y2="941.427" gradientUnits="userSpaceOnUse">
            <stop offset="0.0386388" stop-color="#92C8AB"/>
            <stop offset="0.372628" stop-color="#9ED6B8"/>
            <stop offset="0.706617" stop-color="#DEEFE6"/>
        </linearGradient>
        <linearGradient id="paint4_linear_882_700" x1="991.796" y1="-130" x2="991.796" y2="781.188" gradientUnits="userSpaceOnUse">
            <stop offset="0.180028" stop-color="#D7F0E3" stop-opacity="0"/>
            <stop offset="0.405435" stop-color="#DEEFE6" stop-opacity="0.72549"/>
            <stop offset="0.810513" stop-color="#DEEFE6"/>
            <stop offset="1" stop-color="#DEEFE6" stop-opacity="0"/>
        </linearGradient>
        <linearGradient id="paint5_linear_882_700" x1="789.487" y1="602.959" x2="789.487" y2="1031.38" gradientUnits="userSpaceOnUse">
            <stop stop-color="#9BD3B5"/>
            <stop offset="0.356304" stop-color="#DEEFE6"/>
            <stop offset="0.799989" stop-color="#DEEFE6" stop-opacity="0"/>
        </linearGradient>
        <linearGradient id="paint6_linear_882_700" x1="783.5" y1="641.027" x2="783.5" y2="1069.45" gradientUnits="userSpaceOnUse">
            <stop stop-color="#9BD3B5"/>
            <stop offset="0.356304" stop-color="#DEEFE6"/>
            <stop offset="0.799989" stop-color="#DEEFE6" stop-opacity="0"/>
        </linearGradient>
        <linearGradient id="paint7_linear_882_700" x1="777.829" y1="683.611" x2="777.829" y2="1112.03" gradientUnits="userSpaceOnUse">
            <stop stop-color="#9BD3B5"/>
            <stop offset="0.356304" stop-color="#DEEFE6"/>
            <stop offset="0.799989" stop-color="#F6FDFF"/>
        </linearGradient>
    </defs>
</svg>
